<svg width="23" height="23" viewBox="0 0 23 23" fill="none" xmlns="http://www.w3.org/2000/svg">
<path d="M11.5479 0.5625C5.50781 0.5625 0.610352 5.45996 0.610352 11.5C0.610352 17.54 5.50781 22.4375 11.5479 22.4375C17.5879 22.4375 22.4854 17.54 22.4854 11.5C22.4854 5.45996 17.5879 0.5625 11.5479 0.5625ZM17.7979 6.75635L16.8018 7.71094C16.7139 7.77686 16.6724 7.88428 16.6895 7.98926V15.0132C16.6724 15.1206 16.7139 15.228 16.8018 15.2915L17.7783 16.2461V16.4585H12.876V16.2559L13.8843 15.2769C13.9844 15.1768 13.9844 15.1475 13.9844 14.9985V9.31494L11.1768 16.4341H10.7983L7.53174 9.31494V14.0879C7.50244 14.2881 7.57324 14.4907 7.71484 14.6348L9.02832 16.2241V16.4365H5.29785V16.2241L6.61133 14.6348C6.68053 14.5633 6.73203 14.4766 6.76171 14.3816C6.79139 14.2867 6.79841 14.1861 6.78223 14.0879V8.57031C6.79932 8.4165 6.74072 8.26758 6.62353 8.1626L5.45654 6.75635V6.54395H9.08203L11.8799 12.6841L14.3433 6.54883H17.7979V6.75635Z" fill="white"/>
</svg>
